PathFileType	4	(X/Y/Z)	c:/Users/goper/Files/vsCode/490R/osim_files/A03/A03_Slow_05.trc
DataRate	CameraRate	NumFrames	NumMarkers	Units                	OrigDataRate	OrigDataStartFrame	OrigNumFrames
250.00	250.00	5	36	mm	250.0	1616	2584
                Frame#	Time	LPSIS			LASIS			LTH1			LTH2			LTH3			LTH4			LLFE			LMFE			LSH1			LSH2			LSH3			LSH4			LLMAL			LMMAL			LCAL			LMTP5			LTOE			LMTP1			RPSIS			RASIS			RTH1			RTH2			RTH3			RTH4			RLFE			RMFE			RSH1			RSH2			RSH3			RSH4			RLMAL			RMMAL			RCAL			RMTP1			RTOE			RMTP5		
		X1	Y1	Z1	X2	Y2	Z2	X3	Y3	Z3	X4	Y4	Z4	X5	Y5	Z5	X6	Y6	Z6	X7	Y7	Z7	X8	Y8	Z8	X9	Y9	Z9	X10	Y10	Z10	X11	Y11	Z11	X12	Y12	Z12	X13	Y13	Z13	X14	Y14	Z14	X15	Y15	Z15	X16	Y16	Z16	X17	Y17	Z17	X18	Y18	Z18	X19	Y19	Z19	X20	Y20	Z20	X21	Y21	Z21	X22	Y22	Z22	X23	Y23	Z23	X24	Y24	Z24	X25	Y25	Z25	X26	Y26	Z26	X27	Y27	Z27	X28	Y28	Z28	X29	Y29	Z29	X30	Y30	Z30	X31	Y31	Z31	X32	Y32	Z32	X33	Y33	Z33	X34	Y34	Z34	X35	Y35	Z35	X36	Y36	Z36

1616	6.46000	-2178.69189	1056.33850	253.42557	-2408.90015	967.08923	385.06592	-2267.32007	625.00018	411.99835	-2265.80859	582.99542	409.76758	-2326.85962	615.27710	394.55438	-2314.20801	573.59473	394.25156	-2242.05054	543.77625	398.83234	-2262.35449	531.43768	243.52185	-2180.89453	469.94165	397.31161	-2173.36035	422.06848	396.56714	-2240.45337	450.99237	393.30804	-2221.11060	406.78580	388.12943	-2097.86401	101.73998	364.16367	-2110.55054	108.60368	267.21454	-2028.33936	91.06332	310.59830	-2245.46533	41.63095	376.25659	-2276.47583	70.04369	307.54169	-2246.64160	50.64684	263.19345	-2183.30322	1057.38367	173.51486	-2440.73657	989.79449	84.97915	-2461.25195	623.37268	29.19138	-2474.22363	581.36255	36.57098	-2518.37378	639.84882	37.96222	-2524.92188	596.87073	43.70264	-2505.60303	558.86169	56.39585	-2524.72070	566.33496	177.15312	-2476.47925	482.02145	42.61377	-2490.90869	444.77551	27.44576	-2537.05273	498.22012	43.38025	-2545.31958	453.54498	29.20390	-2625.08862	152.43066	44.55621	0.00000	0.00000	0.00000	-2597.89502	79.89815	96.29079	-2798.70752	158.50136	140.62892	-2809.65356	193.01173	91.72788	-2801.01636	144.43045	25.25492
1617	6.46400	-2183.26440	1055.51831	252.54898	-2413.03149	966.00806	384.89316	-2269.53833	624.68890	411.63135	-2267.85596	582.63727	409.46246	-2329.18091	614.46509	394.38556	-2316.20630	572.99469	394.16357	-2243.96948	543.55701	398.50070	-2265.26758	530.81989	243.51299	-2182.52661	469.90845	397.01700	-2174.78784	422.08087	396.31366	-2241.94336	450.74835	393.10635	-2222.44775	406.55139	387.84509	-2098.06079	101.95993	364.18060	-2110.77100	108.73514	267.14487	-2028.50012	91.43400	310.60013	-2245.51636	41.56563	376.25259	-2276.57031	69.89427	307.53690	-2246.76953	50.63588	263.16895	-2188.08667	1056.31519	172.73404	-2444.04321	988.12836	85.14465	-2464.09399	622.91022	28.85753	-2478.80249	580.11145	36.28869	-2522.49146	639.03754	38.35245	-2529.27002	596.08521	43.80429	-2510.32007	557.92297	56.18926	-2529.52417	565.48029	177.00549	-2481.53857	480.58618	42.51080	-2495.52271	443.32114	27.42865	-2541.96533	497.29752	43.04488	-2550.57788	452.63199	28.96505	-2633.09619	152.27052	44.66996	0.00000	0.00000	0.00000	-2607.18115	79.42259	96.81937	-2807.55298	160.53059	138.80681	-2817.45581	195.20218	89.79401	-2808.76807	146.38438	23.51101
1618	6.46800	-2187.84839	1054.69360	251.61646	-2417.92993	965.28546	385.13745	-2272.93970	625.05499	411.20230	-2269.99756	582.31665	409.15521	-2331.53174	613.62335	394.32718	-2318.28540	572.21490	394.75772	-2246.00366	543.25909	398.21170	-2267.39648	530.36981	243.24768	-2184.17090	470.00699	396.65744	-2176.37134	422.11066	396.10608	-2243.68848	450.54446	392.98907	-2223.92847	406.32864	387.69360	-2098.27124	102.17583	364.19534	-2111.03101	108.91198	267.04971	-2028.77283	91.79432	310.58994	-2245.56274	41.51952	376.26102	-2276.66187	69.79298	307.54834	-2246.90405	50.65662	263.13046	-2194.08862	1055.18481	171.64874	-2448.64062	986.85510	85.03657	-2468.57471	621.58167	29.22967	-2483.54712	579.11169	36.16634	-2526.79492	638.34406	38.68333	-2533.86108	595.41956	43.85135	-2515.13745	556.99622	55.97318	-2534.54419	564.68951	176.77390	-2486.69727	479.34622	42.38732	-2502.46631	441.97519	27.24061	-2547.02246	496.28381	42.61071	-2555.90771	451.66431	28.67393	-2640.54077	151.85521	44.81353	0.00000	0.00000	0.00000	-2616.61597	78.37081	98.29891	-2815.91504	162.34529	137.02869	-2824.71411	196.95239	87.82452	-2815.92725	147.78461	21.78749
1619	6.47200	-2192.46655	1053.94495	250.63936	-2422.06934	964.27313	384.96982	-2275.47900	624.97614	410.61884	-2272.27441	581.99896	408.88721	-2333.99097	612.83063	394.23831	-2320.45068	571.58716	394.66818	-2248.15454	542.96802	397.90884	-2269.64307	529.92291	242.98038	-2185.98511	469.99326	396.36893	-2177.96436	422.09305	395.82703	-2245.72729	450.25027	392.86697	-2225.40894	406.09467	387.49063	-2098.51074	102.48083	364.17850	-2111.30835	109.12017	266.92865	-2029.00317	92.25146	310.52954	-2245.62988	41.49346	376.25235	-2276.76001	69.63515	307.55994	-2247.06128	50.64865	263.07571	-2197.77100	1054.25342	170.92737	-2453.60840	985.64728	84.92249	-2473.22021	620.68866	29.30204	-2488.49731	578.25745	35.93299	-2531.17090	637.73163	38.89233	-2538.64966	594.85889	43.81847	-2520.13477	556.18640	55.69334	-2539.67017	563.87457	176.50206	-2491.95337	477.90833	42.00248	-2507.07300	440.66367	27.20343	-2552.19946	495.33365	42.16215	-2561.27539	450.63449	28.33130	-2647.55420	151.35106	44.93290	0.00000	0.00000	0.00000	-2624.85303	77.67239	99.16847	-2824.07568	163.79846	135.34204	-2831.64087	198.33749	85.85119	-2822.59570	148.60385	20.08202
1620	6.47600	-2197.20020	1053.13269	249.69890	-2426.19409	963.27429	384.82220	-2277.98169	624.67010	410.22656	-2274.63232	581.66187	408.64304	-2335.81030	612.42950	393.92084	-2322.70410	570.99249	394.62732	-2250.33716	542.72668	397.62451	-2271.92773	529.43970	242.70203	-2188.40820	469.96249	396.11575	-2179.65796	422.10461	395.56061	-2246.70190	449.90411	392.13599	-2227.02905	405.91519	387.29910	-2098.73828	102.83472	364.12360	-2111.62329	109.33911	266.77979	-2029.30798	92.78377	310.42459	-2245.64429	41.45813	376.25888	-2276.87744	69.50423	307.55923	-2247.21997	50.64238	263.05249	-2202.54297	1053.29297	169.97887	-2461.89160	985.42993	84.15302	-2478.09595	619.82861	29.27063	-2493.64551	577.50031	35.67166	-2537.06006	637.33887	39.36497	-2543.45996	594.38354	43.68029	-2525.37427	555.46082	55.37359	-2544.99072	563.14496	176.18361	-2497.34814	476.71451	41.72388	-2512.58276	439.44064	26.97753	-2557.50439	494.31784	41.66551	-2566.72632	449.65076	28.01072	-2654.06665	150.63428	45.03197	0.00000	0.00000	0.00000	-2632.36255	76.96021	99.94454	-2830.98633	164.80186	133.70944	-2838.13330	199.13205	83.90736	-2828.84888	148.99240	18.55260
